<svg xmlns="http://www.w3.org/2000/svg" xmlns:xlink="http://www.w3.org/1999/xlink" width="500" zoomAndPan="magnify" viewBox="0 0 375 374.999991" height="500" preserveAspectRatio="xMidYMid meet" version="1.0"><path fill="#ffffff" d="M 285.828125 200.128906 C 285.800781 199.601562 285.75 199.074219 285.671875 198.554688 C 285.59375 198.03125 285.488281 197.511719 285.359375 197 C 285.230469 196.488281 285.078125 195.980469 284.898438 195.484375 C 284.71875 194.988281 284.515625 194.5 284.289062 194.023438 C 284.0625 193.542969 283.8125 193.078125 283.539062 192.625 C 283.265625 192.175781 282.972656 191.734375 282.65625 191.3125 C 282.339844 190.890625 282.003906 190.480469 281.648438 190.089844 C 281.292969 189.699219 280.917969 189.328125 280.523438 188.976562 C 280.128906 188.621094 279.722656 188.289062 279.292969 187.976562 C 278.867188 187.664062 278.429688 187.371094 277.972656 187.101562 C 277.519531 186.832031 277.050781 186.585938 276.574219 186.363281 C 276.09375 186.140625 275.605469 185.941406 275.105469 185.765625 C 274.609375 185.589844 274.101562 185.4375 273.585938 185.3125 C 273.074219 185.1875 272.554688 185.089844 272.03125 185.015625 C 271.507812 184.941406 270.984375 184.894531 270.453125 184.871094 C 269.925781 184.847656 269.398438 184.851562 268.871094 184.882812 C 268.34375 184.914062 267.816406 184.96875 267.296875 185.050781 C 266.773438 185.132812 266.257812 185.238281 265.746094 185.371094 C 265.234375 185.503906 264.730469 185.664062 264.234375 185.84375 C 263.738281 186.027344 263.25 186.234375 262.777344 186.464844 C 262.300781 186.695312 261.835938 186.949219 261.386719 187.226562 C 260.9375 187.5 260.5 187.800781 260.078125 188.117188 C 259.65625 188.4375 259.253906 188.777344 258.863281 189.136719 C 258.476562 189.496094 258.109375 189.875 257.757812 190.269531 C 257.40625 190.664062 257.078125 191.078125 256.765625 191.503906 C 256.457031 191.933594 256.167969 192.375 255.902344 192.832031 C 255.636719 193.289062 255.394531 193.757812 255.175781 194.238281 C 254.953125 194.71875 254.757812 195.210938 254.585938 195.710938 C 254.414062 196.210938 254.269531 196.71875 254.148438 197.234375 C 254.027344 197.746094 253.929688 198.265625 253.859375 198.789062 C 253.789062 199.3125 253.746094 199.839844 253.726562 200.367188 C 253.710938 200.898438 253.71875 201.425781 253.753906 201.953125 C 253.816406 203.121094 253.847656 204.3125 253.847656 205.503906 C 253.847656 206.738281 253.8125 207.96875 253.742188 209.199219 C 253.667969 210.425781 253.5625 211.65625 253.417969 212.878906 C 253.273438 214.101562 253.09375 215.320312 252.875 216.53125 C 252.660156 217.746094 252.410156 218.949219 252.121094 220.148438 C 251.835938 221.347656 251.511719 222.535156 251.15625 223.714844 C 250.796875 224.894531 250.40625 226.0625 249.980469 227.21875 C 249.554688 228.375 249.09375 229.515625 248.597656 230.644531 C 248.105469 231.773438 247.578125 232.886719 247.019531 233.984375 C 246.460938 235.082031 245.867188 236.160156 245.246094 237.226562 C 244.621094 238.289062 243.96875 239.332031 243.28125 240.355469 C 242.597656 241.378906 241.882812 242.382812 241.140625 243.363281 C 240.394531 244.347656 239.625 245.304688 238.824219 246.242188 C 238.023438 247.179688 237.195312 248.089844 236.339844 248.976562 C 235.484375 249.867188 234.605469 250.726562 233.699219 251.5625 C 232.792969 252.398438 231.867188 253.207031 230.914062 253.988281 C 229.960938 254.769531 228.984375 255.519531 227.988281 256.242188 C 226.988281 256.964844 225.972656 257.660156 224.933594 258.320312 C 223.894531 258.984375 222.835938 259.617188 221.761719 260.21875 C 220.6875 260.820312 219.59375 261.386719 218.484375 261.921875 C 217.375 262.460938 216.25 262.960938 215.113281 263.433594 C 213.972656 263.902344 212.820312 264.335938 211.65625 264.738281 C 210.492188 265.140625 209.316406 265.507812 208.128906 265.839844 C 206.945312 266.171875 205.75 266.46875 204.542969 266.730469 C 203.339844 266.996094 202.128906 267.21875 200.914062 267.410156 C 199.695312 267.601562 198.472656 267.753906 197.246094 267.875 C 196.019531 267.992188 194.792969 268.074219 193.5625 268.121094 C 192.332031 268.164062 191.097656 268.175781 189.867188 268.148438 C 188.636719 268.121094 187.40625 268.058594 186.175781 267.957031 C 184.949219 267.859375 183.726562 267.722656 182.503906 267.550781 C 181.285156 267.378906 180.070312 267.171875 178.863281 266.929688 C 177.65625 266.683594 176.457031 266.40625 175.265625 266.089844 C 174.074219 265.777344 172.894531 265.429688 171.722656 265.042969 C 170.550781 264.660156 169.394531 264.242188 168.246094 263.789062 C 167.101562 263.335938 165.96875 262.851562 164.851562 262.332031 C 163.734375 261.8125 162.632812 261.261719 161.550781 260.675781 C 160.464844 260.09375 159.398438 259.476562 158.351562 258.832031 C 157.300781 258.183594 156.273438 257.503906 155.265625 256.796875 C 154.257812 256.089844 153.269531 255.351562 152.304688 254.585938 C 151.339844 253.820312 150.398438 253.027344 149.480469 252.207031 C 148.5625 251.382812 147.667969 250.535156 146.800781 249.660156 C 145.933594 248.785156 145.09375 247.886719 144.277344 246.964844 C 143.460938 246.039062 142.675781 245.09375 141.917969 244.121094 C 141.15625 243.152344 140.425781 242.160156 139.726562 241.144531 C 139.027344 240.132812 138.355469 239.097656 137.71875 238.046875 C 137.078125 236.992188 136.46875 235.921875 135.894531 234.832031 C 135.316406 233.742188 134.773438 232.636719 134.261719 231.515625 C 133.753906 230.394531 133.273438 229.261719 132.832031 228.109375 C 132.386719 226.960938 131.976562 225.800781 131.601562 224.628906 C 131.226562 223.453125 130.886719 222.269531 130.582031 221.078125 C 130.277344 219.882812 130.003906 218.679688 129.769531 217.472656 C 129.535156 216.261719 129.339844 215.046875 129.175781 213.824219 C 129.011719 212.605469 128.886719 211.378906 128.796875 210.152344 C 128.703125 208.921875 128.652344 207.691406 128.632812 206.460938 C 128.613281 205.226562 128.632812 203.996094 128.6875 202.765625 C 128.742188 201.535156 128.835938 200.308594 128.960938 199.082031 C 129.089844 197.855469 129.253906 196.636719 129.453125 195.417969 C 129.652344 194.203125 129.886719 192.996094 130.15625 191.792969 C 130.425781 190.589844 130.734375 189.398438 131.074219 188.214844 C 131.414062 187.03125 131.792969 185.859375 132.203125 184.695312 C 132.613281 183.535156 133.058594 182.386719 133.535156 181.25 C 134.011719 180.113281 134.523438 178.996094 135.070312 177.890625 C 135.613281 176.785156 136.191406 175.695312 136.796875 174.625 C 137.40625 173.554688 138.046875 172.5 138.71875 171.46875 C 139.386719 170.433594 140.089844 169.421875 140.820312 168.429688 C 141.550781 167.4375 142.308594 166.46875 143.097656 165.519531 C 143.882812 164.574219 144.699219 163.648438 145.542969 162.75 C 146.382812 161.851562 147.25 160.976562 148.144531 160.128906 C 149.039062 159.28125 149.957031 158.460938 150.898438 157.667969 C 151.84375 156.875 152.808594 156.109375 153.792969 155.371094 C 154.78125 154.636719 155.789062 153.929688 156.820312 153.25 C 157.847656 152.574219 158.898438 151.925781 159.964844 151.3125 C 161.03125 150.695312 162.117188 150.113281 163.21875 149.5625 C 164.320312 149.011719 165.4375 148.492188 166.570312 148.007812 C 167.703125 147.519531 168.847656 147.070312 170.007812 146.652344 C 171.164062 146.234375 172.335938 145.851562 173.515625 145.5 C 174.699219 145.152344 175.890625 144.839844 177.089844 144.5625 C 178.289062 144.28125 179.496094 144.039062 180.710938 143.832031 C 181.925781 143.625 183.144531 143.453125 184.371094 143.320312 C 185.59375 143.183594 186.824219 143.085938 188.054688 143.023438 C 189.285156 142.960938 190.515625 142.933594 191.746094 142.945312 C 192.980469 142.953125 194.210938 143 195.4375 143.082031 C 196.667969 143.164062 197.894531 143.285156 199.117188 143.441406 C 200.339844 143.59375 201.554688 143.785156 202.765625 144.011719 C 203.976562 144.238281 205.179688 144.503906 206.375 144.800781 C 207.570312 145.097656 208.757812 145.429688 209.933594 145.796875 C 211.109375 146.167969 212.273438 146.570312 213.425781 147.003906 C 214.578125 147.441406 215.714844 147.914062 216.839844 148.414062 C 217.964844 148.917969 219.070312 149.457031 220.164062 150.027344 C 221.257812 150.59375 222.332031 151.195312 223.390625 151.828125 C 224.445312 152.460938 225.484375 153.125 226.5 153.816406 C 227.519531 154.511719 228.515625 155.234375 229.492188 155.988281 C 230.46875 156.742188 231.417969 157.523438 232.347656 158.332031 C 233.277344 159.140625 234.183594 159.976562 235.0625 160.839844 C 235.941406 161.699219 236.796875 162.589844 237.625 163.5 C 238.449219 164.414062 239.25 165.351562 240.023438 166.308594 C 240.796875 167.269531 241.539062 168.253906 242.253906 169.257812 C 242.558594 169.683594 242.882812 170.097656 243.230469 170.492188 C 243.574219 170.890625 243.9375 171.269531 244.320312 171.628906 C 244.703125 171.988281 245.105469 172.332031 245.519531 172.652344 C 245.9375 172.972656 246.367188 173.273438 246.8125 173.554688 C 247.257812 173.832031 247.71875 174.089844 248.1875 174.324219 C 248.660156 174.558594 249.140625 174.769531 249.632812 174.953125 C 250.125 175.140625 250.625 175.304688 251.132812 175.441406 C 251.640625 175.578125 252.152344 175.691406 252.671875 175.78125 C 253.191406 175.867188 253.710938 175.929688 254.234375 175.964844 C 254.761719 176 255.285156 176.011719 255.8125 175.996094 C 256.339844 175.980469 256.863281 175.9375 257.382812 175.871094 C 257.90625 175.804688 258.421875 175.710938 258.933594 175.59375 C 259.449219 175.476562 259.953125 175.335938 260.453125 175.167969 C 260.949219 175 261.441406 174.808594 261.917969 174.59375 C 262.398438 174.378906 262.867188 174.140625 263.324219 173.878906 C 263.78125 173.617188 264.222656 173.332031 264.652344 173.027344 C 265.082031 172.722656 265.492188 172.398438 265.890625 172.054688 C 266.285156 171.707031 266.664062 171.34375 267.027344 170.960938 C 267.386719 170.578125 267.726562 170.179688 268.050781 169.761719 C 268.371094 169.347656 268.671875 168.914062 268.953125 168.46875 C 269.230469 168.023438 269.488281 167.566406 269.722656 167.09375 C 269.957031 166.625 270.167969 166.144531 270.355469 165.652344 C 270.542969 165.160156 270.703125 164.660156 270.84375 164.152344 C 270.980469 163.644531 271.09375 163.132812 271.179688 162.613281 C 271.269531 162.09375 271.328125 161.574219 271.367188 161.046875 C 271.402344 160.523438 271.414062 159.996094 271.398438 159.472656 C 271.382812 158.945312 271.34375 158.421875 271.273438 157.902344 C 271.207031 157.378906 271.117188 156.863281 271 156.347656 C 270.882812 155.835938 270.738281 155.332031 270.570312 154.832031 C 270.40625 154.332031 270.214844 153.84375 270 153.363281 C 269.785156 152.882812 269.546875 152.414062 269.285156 151.957031 C 269.023438 151.503906 268.738281 151.058594 268.433594 150.632812 C 265.066406 145.90625 261.292969 141.523438 257.121094 137.488281 C 252.949219 133.453125 248.445312 129.832031 243.609375 126.625 C 238.773438 123.414062 233.6875 120.671875 228.347656 118.394531 C 223.007812 116.117188 217.507812 114.34375 211.84375 113.074219 L 237.953125 60.097656 C 238.367188 59.257812 238.695312 58.382812 238.941406 57.476562 C 239.183594 56.570312 239.335938 55.652344 239.398438 54.714844 C 239.457031 53.777344 239.429688 52.84375 239.304688 51.914062 C 239.183594 50.984375 238.972656 50.074219 238.671875 49.1875 C 238.371094 48.296875 237.984375 47.449219 237.515625 46.636719 C 237.046875 45.824219 236.503906 45.0625 235.886719 44.359375 C 235.265625 43.652344 234.585938 43.015625 233.84375 42.441406 C 233.097656 41.871094 232.304688 41.378906 231.464844 40.960938 C 230.625 40.546875 229.75 40.21875 228.84375 39.976562 C 227.9375 39.730469 227.015625 39.578125 226.078125 39.519531 C 225.144531 39.457031 224.210938 39.484375 223.28125 39.609375 C 222.351562 39.730469 221.441406 39.941406 220.550781 40.242188 C 219.664062 40.542969 218.8125 40.929688 218 41.398438 C 217.1875 41.867188 216.429688 42.410156 215.722656 43.027344 C 215.019531 43.648438 214.378906 44.328125 213.808594 45.070312 C 213.238281 45.816406 212.742188 46.609375 212.328125 47.449219 L 174.886719 112.230469 L 174.308594 112.335938 L 187.125 62.25 C 187.277344 61.792969 187.402344 61.335938 187.507812 60.867188 C 187.613281 60.398438 187.691406 59.929688 187.75 59.453125 C 187.804688 58.980469 187.839844 58.5 187.847656 58.023438 C 187.855469 57.546875 187.839844 57.066406 187.800781 56.589844 C 187.761719 56.113281 187.699219 55.640625 187.613281 55.167969 C 187.527344 54.699219 187.414062 54.234375 187.28125 53.773438 C 187.148438 53.316406 186.992188 52.863281 186.8125 52.417969 C 186.632812 51.976562 186.433594 51.542969 186.210938 51.117188 C 185.988281 50.695312 185.746094 50.28125 185.480469 49.882812 C 185.21875 49.484375 184.933594 49.101562 184.632812 48.730469 C 184.328125 48.359375 184.007812 48.003906 183.671875 47.664062 C 183.332031 47.328125 182.976562 47.007812 182.609375 46.703125 C 182.238281 46.398438 181.851562 46.117188 181.453125 45.851562 C 181.054688 45.589844 180.644531 45.34375 180.21875 45.121094 C 179.796875 44.898438 179.363281 44.699219 178.917969 44.519531 C 178.476562 44.339844 178.023438 44.183594 177.566406 44.046875 C 177.105469 43.914062 176.640625 43.804688 176.167969 43.71875 C 175.699219 43.628906 175.226562 43.566406 174.75 43.527344 C 174.273438 43.488281 173.792969 43.472656 173.316406 43.480469 C 172.835938 43.488281 172.359375 43.519531 171.886719 43.578125 C 171.410156 43.632812 170.9375 43.714844 170.472656 43.816406 C 170.003906 43.921875 169.542969 44.046875 169.089844 44.199219 C 168.636719 44.347656 168.191406 44.519531 167.753906 44.714844 C 167.316406 44.910156 166.890625 45.125 166.472656 45.363281 C 166.058594 45.601562 165.65625 45.859375 165.265625 46.136719 C 164.878906 46.414062 164.503906 46.710938 164.144531 47.027344 C 163.785156 47.34375 163.441406 47.675781 163.113281 48.027344 C 162.789062 48.378906 162.480469 48.742188 162.191406 49.125 C 161.902344 49.503906 161.632812 49.898438 161.382812 50.308594 C 161.132812 50.714844 160.90625 51.136719 160.699219 51.566406 C 160.488281 52 160.304688 52.4375 160.140625 52.890625 C 159.976562 53.339844 159.839844 53.796875 159.71875 54.257812 L 135.886719 127.113281 L 135.886719 77.449219 C 135.941406 76.5 135.894531 75.550781 135.757812 74.609375 C 135.621094 73.667969 135.390625 72.75 135.070312 71.855469 C 134.746094 70.957031 134.339844 70.101562 133.847656 69.289062 C 133.355469 68.476562 132.789062 67.71875 132.144531 67.015625 C 131.5 66.316406 130.792969 65.683594 130.023438 65.125 C 129.253906 64.566406 128.433594 64.089844 127.570312 63.691406 C 126.703125 63.296875 125.808594 62.992188 124.882812 62.773438 C 123.953125 62.554688 123.015625 62.433594 122.066406 62.40625 C 121.113281 62.375 120.167969 62.441406 119.230469 62.601562 C 118.292969 62.761719 117.378906 63.011719 116.492188 63.351562 C 115.601562 63.695312 114.757812 64.121094 113.953125 64.632812 C 113.152344 65.144531 112.40625 65.730469 111.722656 66.390625 C 111.035156 67.050781 110.421875 67.773438 109.882812 68.554688 C 109.339844 69.335938 108.882812 70.164062 108.503906 71.039062 C 108.128906 71.914062 107.84375 72.816406 107.648438 73.75 C 107.453125 74.679688 107.351562 75.621094 107.34375 76.574219 L 104.550781 167.296875 C 103.84375 168.902344 103.179688 170.527344 102.5625 172.167969 C 101.945312 173.8125 101.371094 175.472656 100.847656 177.148438 C 100.320312 178.820312 99.84375 180.511719 99.410156 182.210938 C 98.976562 183.914062 98.59375 185.625 98.257812 187.347656 C 97.921875 189.070312 97.632812 190.804688 97.390625 192.542969 C 97.152344 194.28125 96.960938 196.027344 96.816406 197.773438 C 96.671875 199.523438 96.578125 201.277344 96.53125 203.03125 C 96.484375 204.789062 96.488281 206.542969 96.539062 208.296875 C 96.589844 210.050781 96.691406 211.804688 96.839844 213.554688 C 96.988281 215.300781 97.1875 217.046875 97.433594 218.785156 C 97.679688 220.523438 97.972656 222.253906 98.3125 223.976562 C 98.65625 225.695312 99.046875 227.40625 99.484375 229.109375 C 99.921875 230.808594 100.402344 232.496094 100.933594 234.167969 C 101.464844 235.84375 102.042969 237.5 102.664062 239.140625 C 103.289062 240.78125 103.957031 242.40625 104.671875 244.007812 C 105.382812 245.613281 106.140625 247.195312 106.941406 248.757812 C 107.742188 250.320312 108.585938 251.859375 109.472656 253.375 C 110.359375 254.890625 111.289062 256.378906 112.257812 257.84375 C 113.230469 259.304688 114.238281 260.742188 115.289062 262.148438 C 116.335938 263.554688 117.425781 264.933594 118.550781 266.28125 C 119.675781 267.625 120.839844 268.941406 122.039062 270.222656 C 123.238281 271.507812 124.472656 272.753906 125.738281 273.96875 C 127.007812 275.179688 128.308594 276.359375 129.644531 277.5 C 130.976562 278.640625 132.339844 279.746094 133.738281 280.8125 C 135.132812 281.875 136.554688 282.902344 138.007812 283.890625 C 139.460938 284.875 140.9375 285.820312 142.445312 286.726562 C 143.949219 287.628906 145.476562 288.492188 147.03125 289.308594 C 148.582031 290.128906 150.15625 290.90625 151.753906 291.636719 C 153.347656 292.367188 154.964844 293.054688 156.597656 293.695312 C 158.230469 294.339844 159.882812 294.933594 161.550781 295.484375 C 163.214844 296.035156 164.898438 296.539062 166.59375 296.996094 C 168.289062 297.453125 169.996094 297.859375 171.710938 298.222656 C 173.429688 298.585938 175.15625 298.898438 176.890625 299.164062 C 178.628906 299.429688 180.367188 299.648438 182.117188 299.816406 C 183.863281 299.984375 185.613281 300.105469 187.367188 300.175781 C 189.121094 300.25 190.878906 300.273438 192.632812 300.246094 C 194.386719 300.21875 196.140625 300.144531 197.894531 300.023438 C 199.644531 299.898438 201.390625 299.726562 203.132812 299.507812 C 204.875 299.285156 206.609375 299.015625 208.335938 298.699219 C 210.0625 298.382812 211.777344 298.019531 213.484375 297.605469 C 215.191406 297.195312 216.886719 296.734375 218.566406 296.226562 C 220.246094 295.722656 221.914062 295.167969 223.5625 294.570312 C 225.214844 293.972656 226.84375 293.328125 228.460938 292.636719 C 230.074219 291.949219 231.667969 291.214844 233.242188 290.433594 C 234.816406 289.65625 236.367188 288.835938 237.894531 287.96875 C 239.421875 287.105469 240.925781 286.199219 242.402344 285.25 C 243.878906 284.304688 245.328125 283.316406 246.753906 282.285156 C 248.175781 281.257812 249.566406 280.191406 250.929688 279.082031 C 252.292969 277.976562 253.625 276.835938 254.925781 275.652344 C 256.226562 274.472656 257.492188 273.257812 258.722656 272.007812 C 259.957031 270.757812 261.152344 269.472656 262.3125 268.15625 C 263.472656 266.839844 264.597656 265.492188 265.683594 264.109375 C 266.769531 262.730469 267.816406 261.324219 268.820312 259.886719 C 269.828125 258.449219 270.796875 256.984375 271.722656 255.492188 C 272.648438 254 273.53125 252.484375 274.375 250.941406 C 275.214844 249.402344 276.015625 247.839844 276.769531 246.253906 C 277.523438 244.667969 278.234375 243.066406 278.898438 241.441406 C 279.566406 239.816406 280.183594 238.175781 280.761719 236.515625 C 281.335938 234.855469 281.863281 233.183594 282.34375 231.496094 C 282.824219 229.804688 283.257812 228.105469 283.644531 226.394531 C 284.03125 224.679688 284.371094 222.960938 284.664062 221.226562 C 284.953125 219.496094 285.195312 217.757812 285.390625 216.015625 C 285.585938 214.269531 285.730469 212.519531 285.828125 210.765625 C 285.925781 209.015625 285.976562 207.261719 285.972656 205.503906 C 285.972656 203.703125 285.933594 201.910156 285.828125 200.128906 Z M 285.828125 200.128906 " fill-opacity="1" fill-rule="nonzero"/><path fill="#ffffff" d="M 191.226562 148.070312 C 187.042969 148.078125 182.910156 148.535156 178.832031 149.449219 L 186.304688 161.65625 L 171.546875 238.601562 L 191.238281 256.445312 L 210.925781 238.601562 L 196.167969 161.65625 L 203.644531 149.449219 C 199.554688 148.535156 195.414062 148.074219 191.226562 148.070312 Z M 191.226562 148.070312 " fill-opacity="1" fill-rule="nonzero"/></svg>